<svg xmlns="http://www.w3.org/2000/svg" xmlns:xlink="http://www.w3.org/1999/xlink" width="40" height="40" viewBox="0 0 40 40"><defs><clipPath id="a"><rect width="40" height="40" transform="translate(50 153)" stroke="#707070" stroke-width="1"/></clipPath></defs><g transform="translate(-50 -153)" clip-path="url(#a)"><g transform="translate(-9 -4)"><path d="M1.862-7.392a.861.861,0,0,1,.63.266.861.861,0,0,1,.266.63.861.861,0,0,1-.266.63.861.861,0,0,1-.63.266.861.861,0,0,1-.63-.266A.861.861,0,0,1,.966-6.5a.861.861,0,0,1,.266-.63A.861.861,0,0,1,1.862-7.392Zm0,5.8a.861.861,0,0,1,.63.266.861.861,0,0,1,.266.63.861.861,0,0,1-.266.63A.861.861,0,0,1,1.862.2a.861.861,0,0,1-.63-.266A.861.861,0,0,1,.966-.7a.861.861,0,0,1,.266-.63A.861.861,0,0,1,1.862-1.6Z" transform="translate(67 180)" fill="#fff"/><path d="M8.232-16.992q4.728,0,7.032,2.148a8,8,0,0,1,2.3,6.156A8.991,8.991,0,0,1,16.44-4.116,7.632,7.632,0,0,1,13.164-1.08,11.347,11.347,0,0,1,8.016,0Q7.632,0,7.008-.024T5.712-.06q-.672-.012-1.2-.012-1.056,0-2.076.012T.816,0V-.48A4.238,4.238,0,0,0,1.968-.672a.834.834,0,0,0,.516-.576,4.745,4.745,0,0,0,.132-1.3v-11.9a4.726,4.726,0,0,0-.132-1.308.865.865,0,0,0-.528-.576,3.56,3.56,0,0,0-1.14-.18v-.48q.6.024,1.62.06t2.028.012q.864-.024,1.956-.048T8.232-16.992Zm-.024.432a1.861,1.861,0,0,0-1.44.408A2.8,2.8,0,0,0,6.432-14.5v12A2.723,2.723,0,0,0,6.78-.84a1.905,1.905,0,0,0,1.452.408,4.893,4.893,0,0,0,3.18-.948A5.252,5.252,0,0,0,13.08-4.152a16.88,16.88,0,0,0,.5-4.44,15.477,15.477,0,0,0-.54-4.452,4.982,4.982,0,0,0-1.716-2.64A5.1,5.1,0,0,0,8.208-16.56Z" transform="translate(71 185)" fill="#fff"/></g></g></svg>