<svg xmlns="http://www.w3.org/2000/svg" width="308.16" height="51.008" viewBox="0 0 308.16 51.008"><path d="M33.024-50.112V-7.04a7.951,7.951,0,0,0,.9,4.256,3.527,3.527,0,0,0,3.2,1.376V-.064q-1.984-.192-3.968-.192-2.688,0-5.024.192a25.736,25.736,0,0,0-4.32.7V-42.432a8.194,8.194,0,0,0-.864-4.256,3.516,3.516,0,0,0-3.232-1.376v-1.344q2.048.192,3.968.192,2.624,0,4.992-.224A34.613,34.613,0,0,0,33.024-50.112ZM16.7-33.984a12.393,12.393,0,0,1,4.96.928,6.957,6.957,0,0,1,3.36,3.1l-.768.7a5.015,5.015,0,0,0-2.208-2.208,6.551,6.551,0,0,0-2.912-.672q-3.264,0-5.184,3.808T12.1-16.576A40.66,40.66,0,0,0,12.832-7.9a9.7,9.7,0,0,0,2.112,4.64,4.307,4.307,0,0,0,3.168,1.408,5.389,5.389,0,0,0,3.9-1.728,6.752,6.752,0,0,0,1.856-4.672l.32,2.24a9.937,9.937,0,0,1-3.1,5.152A8.543,8.543,0,0,1,15.488.9,12.494,12.494,0,0,1,8.736-.96,12.13,12.13,0,0,1,4.1-6.688,25.611,25.611,0,0,1,2.432-16.7a21.958,21.958,0,0,1,1.856-9.632,13.13,13.13,0,0,1,5.088-5.728A14.072,14.072,0,0,1,16.7-33.984ZM64.9-19.968v5.312h-23.1v-5.312ZM82.944-33.984a14.891,14.891,0,0,1,4.7.672A11.583,11.583,0,0,1,90.56-32q2.176,1.472,2.688-1.92h1.344q-.128,1.792-.192,4.384t-.064,6.88H92.992a20.388,20.388,0,0,0-1.216-4.672A9.414,9.414,0,0,0,89.184-31.1,6.448,6.448,0,0,0,84.8-32.576a4.765,4.765,0,0,0-3.136,1.056,3.716,3.716,0,0,0-1.28,3.04,5.22,5.22,0,0,0,1.152,3.36,14.962,14.962,0,0,0,2.976,2.752q1.824,1.312,3.808,2.784,2.112,1.6,3.84,3.168a13.316,13.316,0,0,1,2.752,3.424,9.007,9.007,0,0,1,1.024,4.416,7.957,7.957,0,0,1-1.664,5.024,10.71,10.71,0,0,1-4.384,3.3A15.359,15.359,0,0,1,83.84.9,13.883,13.883,0,0,1,80.416.512a11.772,11.772,0,0,1-2.592-.96q-.832-.384-1.568-.736T74.88-1.792a.975.975,0,0,0-1.12.448A4.675,4.675,0,0,0,73.024.448H71.68q.128-2.048.192-4.992t.064-7.808H73.28A24.525,24.525,0,0,0,74.688-6.24a10.131,10.131,0,0,0,2.784,4.16,6.606,6.606,0,0,0,4.448,1.5,5.218,5.218,0,0,0,2.112-.448,3.869,3.869,0,0,0,1.7-1.472A4.7,4.7,0,0,0,86.4-5.12a6.394,6.394,0,0,0-1.824-4.672,45.951,45.951,0,0,0-4.64-4.032q-2.048-1.664-3.872-3.3A15.125,15.125,0,0,1,73.088-20.7a8.585,8.585,0,0,1-1.152-4.448,7.706,7.706,0,0,1,1.536-4.864,9.32,9.32,0,0,1,4.064-2.976A14.671,14.671,0,0,1,82.944-33.984Zm48.768.192V-6.976a7.951,7.951,0,0,0,.9,4.256,3.527,3.527,0,0,0,3.2,1.376V0q-1.984-.192-3.968-.192-2.688,0-4.992.192A27.268,27.268,0,0,0,122.5.7v-5.76A9.506,9.506,0,0,1,118.24-.48,13.2,13.2,0,0,1,112.192.9a11.312,11.312,0,0,1-4.352-.7A7.136,7.136,0,0,1,105.216-1.6a7.019,7.019,0,0,1-1.536-3.2,23.947,23.947,0,0,1-.448-5.12V-26.112a8.194,8.194,0,0,0-.864-4.256,3.516,3.516,0,0,0-3.232-1.376v-1.344q2.048.192,3.968.192,2.688,0,5.024-.224a34.687,34.687,0,0,0,4.32-.672V-7.3a12.3,12.3,0,0,0,.288,2.816,3.32,3.32,0,0,0,1.12,1.888,3.8,3.8,0,0,0,2.432.672,5.3,5.3,0,0,0,3.1-.96,7.071,7.071,0,0,0,2.24-2.656,8.268,8.268,0,0,0,.864-3.808V-26.112a8.194,8.194,0,0,0-.864-4.256,3.516,3.516,0,0,0-3.232-1.376v-1.344q2.048.192,3.968.192,2.688,0,5.024-.224A34.688,34.688,0,0,0,131.712-33.792Zm19.9-16.32v44.16q0,2.688.864,3.648a3.862,3.862,0,0,0,2.976.96V0Q154.24-.064,151.9-.16t-4.768-.1q-2.5,0-5.024.1T138.3,0V-1.344a4.3,4.3,0,0,0,3.168-.96q.928-.96.928-3.648v-36.48a8.194,8.194,0,0,0-.864-4.256,3.516,3.516,0,0,0-3.232-1.376v-1.344q2.048.192,3.968.192,2.624,0,4.992-.224A34.613,34.613,0,0,0,151.616-50.112ZM172.48-33.088v1.28a11.289,11.289,0,0,0-3.968,1.664,26.548,26.548,0,0,0-4.032,3.264l-4.928,5.12.64-1.216,10.944,18.3a15.8,15.8,0,0,0,1.472,2.048,4.289,4.289,0,0,0,1.856,1.28V0q-.96-.064-2.88-.16t-3.84-.1q-2.368,0-4.736.1t-3.52.16V-1.344a2.036,2.036,0,0,0,1.728-.608,1.352,1.352,0,0,0-.128-1.568l-6.336-11.456a4.09,4.09,0,0,0-1.5-1.568,5.212,5.212,0,0,0-1.952-.416v-1.216a11.084,11.084,0,0,0,2.336-.448,4.294,4.294,0,0,0,1.824-1.216l4.864-4.736q2.176-2.048,2.176-3.648a2.977,2.977,0,0,0-1.376-2.56,6.534,6.534,0,0,0-3.616-1.024v-1.28q1.792.064,3.9.128t3.584.064q1.28,0,2.72-.032t2.72-.064Q171.712-33.024,172.48-33.088Zm18.624-.9q5.632,0,8.832,3.328t3.2,10.88H182.08l-.128-1.216h13.12a31.071,31.071,0,0,0-.384-5.792,12.283,12.283,0,0,0-1.408-4.256,2.893,2.893,0,0,0-2.56-1.6q-2.24,0-3.808,2.816t-1.888,9.344l.192.384q-.064.768-.1,1.6t-.032,1.728A17.5,17.5,0,0,0,186.336-9.6a9.048,9.048,0,0,0,3.168,4,7.093,7.093,0,0,0,3.9,1.248,10.015,10.015,0,0,0,2.784-.416A8.967,8.967,0,0,0,199.1-6.3a11.725,11.725,0,0,0,2.752-3.168l1.152.384a16.66,16.66,0,0,1-2.432,4.736,13.334,13.334,0,0,1-4.224,3.776A12.128,12.128,0,0,1,190.208.9a15.5,15.5,0,0,1-7.68-1.856,12.764,12.764,0,0,1-5.216-5.632,21.428,21.428,0,0,1-1.888-9.6,21.786,21.786,0,0,1,2.016-9.92,13.514,13.514,0,0,1,5.568-5.92A16.531,16.531,0,0,1,191.1-33.984ZM213.952-8.96a5.745,5.745,0,0,1,3.968,1.312,4.6,4.6,0,0,1,1.472,3.616A4.6,4.6,0,0,1,217.92-.416,5.745,5.745,0,0,1,213.952.9a5.745,5.745,0,0,1-3.968-1.312,4.6,4.6,0,0,1-1.472-3.616,4.6,4.6,0,0,1,1.472-3.616A5.745,5.745,0,0,1,213.952-8.96ZM247.36-33.984a11.8,11.8,0,0,1,4.352.672,7.058,7.058,0,0,1,2.688,1.824,7.407,7.407,0,0,1,1.472,3.168,23.863,23.863,0,0,1,.448,5.152V-5.952q0,2.688.832,3.648a3.656,3.656,0,0,0,2.88.96V0q-1.152-.064-3.488-.16t-4.576-.1q-2.3,0-4.544.1T244.032,0V-1.344a2.73,2.73,0,0,0,2.4-.96,6.878,6.878,0,0,0,.672-3.648v-19.9a13.309,13.309,0,0,0-.256-2.784,3.406,3.406,0,0,0-.992-1.856,3.179,3.179,0,0,0-2.208-.672,5.342,5.342,0,0,0-3.072.96,6.955,6.955,0,0,0-2.272,2.656,8.268,8.268,0,0,0-.864,3.808V-5.952a6.614,6.614,0,0,0,.7,3.648,2.742,2.742,0,0,0,2.368.96V0q-1.024-.064-3.168-.16t-4.384-.1q-2.432,0-4.992.1t-3.84.16V-1.344A4.3,4.3,0,0,0,227.3-2.3q.928-.96.928-3.648v-20.16a8.194,8.194,0,0,0-.864-4.256,3.516,3.516,0,0,0-3.232-1.376v-1.344q2.048.192,3.968.192,2.688,0,5.024-.224a34.688,34.688,0,0,0,4.32-.672v5.76a9.643,9.643,0,0,1,4.16-4.576A12.212,12.212,0,0,1,247.36-33.984Zm19.264,0a11.8,11.8,0,0,1,4.352.672,7.058,7.058,0,0,1,2.688,1.824,7.407,7.407,0,0,1,1.472,3.168,23.862,23.862,0,0,1,.448,5.152V-5.952q0,2.688.928,3.648a4.3,4.3,0,0,0,3.168.96V0q-1.216-.064-3.648-.16t-4.8-.1q-2.3,0-4.544.1T263.3,0V-1.344a2.73,2.73,0,0,0,2.4-.96,6.878,6.878,0,0,0,.672-3.648v-19.9a11.881,11.881,0,0,0-.288-2.784,3.385,3.385,0,0,0-1.088-1.856,3.776,3.776,0,0,0-2.464-.672,5.113,5.113,0,0,0-3.072,1.024,7.442,7.442,0,0,0-2.272,2.752,9.1,9.1,0,0,0-.928,3.84l-.32-3.9a9.847,9.847,0,0,1,4.576-5.184A14.141,14.141,0,0,1,266.624-33.984Zm31.936,0q5.632,0,8.832,3.328t3.2,10.88H289.536l-.128-1.216h13.12a31.069,31.069,0,0,0-.384-5.792,12.283,12.283,0,0,0-1.408-4.256,2.893,2.893,0,0,0-2.56-1.6q-2.24,0-3.808,2.816T292.48-20.48l.192.384q-.064.768-.1,1.6t-.032,1.728A17.5,17.5,0,0,0,293.792-9.6a9.048,9.048,0,0,0,3.168,4,7.093,7.093,0,0,0,3.9,1.248,10.015,10.015,0,0,0,2.784-.416A8.968,8.968,0,0,0,306.56-6.3a11.725,11.725,0,0,0,2.752-3.168l1.152.384a16.659,16.659,0,0,1-2.432,4.736,13.335,13.335,0,0,1-4.224,3.776A12.128,12.128,0,0,1,297.664.9a15.5,15.5,0,0,1-7.68-1.856,12.764,12.764,0,0,1-5.216-5.632,21.428,21.428,0,0,1-1.888-9.6,21.786,21.786,0,0,1,2.016-9.92,13.514,13.514,0,0,1,5.568-5.92A16.531,16.531,0,0,1,298.56-33.984Z" transform="translate(-2.432 50.112)" fill="#fff"/></svg>